<svg xmlns="http://www.w3.org/2000/svg" width="1800" height="3000" viewBox="0 0 1800 3000">
<defs>
  <style>
    text { font-family: -apple-system, BlinkMacSystemFont, "Segoe UI", "Noto Sans CJK SC", "Microsoft YaHei", Arial, sans-serif; }
  </style>
  <filter id="shadow" x="-10%" y="-10%" width="120%" height="120%">
    <feDropShadow dx="0" dy="2" stdDeviation="4" flood-color="#9aa9bd" flood-opacity="0.22"/>
  </filter>
</defs>
<rect width="1800" height="3000" fill="#fbfdff"/>
<text x="24" y="36" font-size="30" fill="#185abc" font-weight="900" text-anchor="start">SimilarScanDemo 图库扫描技术方案信息图</text>
<text x="1776" y="36" font-size="20" fill="#d96b00" font-weight="800" text-anchor="end">REVIEW DRAFT</text>
<text x="24" y="76" font-size="28" fill="#185abc" font-weight="800" text-anchor="start">1. 完整流程概览（从授权到结果展示）</text>
<rect x="24" y="104" width="180" height="190" rx="10" fill="#eef5ff" stroke="#cad7ea" stroke-width="1"/>
<text x="42" y="138" font-size="22" fill="#185abc" font-weight="700" text-anchor="start">授权</text>
<text x="42" y="182" font-size="15" fill="#253247" font-weight="700" text-anchor="start">•</text>
<text x="58" y="182" font-size="15" fill="#253247" font-weight="400" text-anchor="start">申请权限</text>
<text x="42" y="206" font-size="15" fill="#253247" font-weight="700" text-anchor="start">•</text>
<text x="58" y="206" font-size="15" fill="#253247" font-weight="400" text-anchor="start">IMAGES</text>
<text x="42" y="230" font-size="15" fill="#253247" font-weight="700" text-anchor="start">•</text>
<text x="58" y="230" font-size="15" fill="#253247" font-weight="400" text-anchor="start">VIDEO</text>
<circle cx="114" cy="312" r="17" fill="#185abc"/>
<text x="114" y="319" font-size="18" fill="#fff" font-weight="700" text-anchor="middle">1</text>
<line x1="207" y1="199" x2="217" y2="199" stroke="#6b7a90" stroke-width="2" stroke-linecap="round"/>
<path d="M 217 199 l -9 -5 l 0 10 z" fill="#6b7a90" transform="rotate(0 217 199)"/>
<rect x="222" y="104" width="180" height="190" rx="10" fill="#eefaf1" stroke="#cad7ea" stroke-width="1"/>
<text x="240" y="138" font-size="22" fill="#16833a" font-weight="700" text-anchor="start">资源读取</text>
<text x="240" y="182" font-size="15" fill="#253247" font-weight="700" text-anchor="start">•</text>
<text x="256" y="182" font-size="15" fill="#253247" font-weight="400" text-anchor="start">MediaStore 读取</text>
<text x="240" y="206" font-size="15" fill="#253247" font-weight="700" text-anchor="start">•</text>
<text x="256" y="206" font-size="15" fill="#253247" font-weight="400" text-anchor="start">图片 + 视频</text>
<text x="240" y="230" font-size="15" fill="#253247" font-weight="700" text-anchor="start">•</text>
<text x="256" y="230" font-size="15" fill="#253247" font-weight="400" text-anchor="start">_size &gt; 0</text>
<text x="240" y="254" font-size="15" fill="#253247" font-weight="700" text-anchor="start">•</text>
<text x="256" y="254" font-size="15" fill="#253247" font-weight="400" text-anchor="start">DATE_ADDED DESC</text>
<circle cx="312" cy="312" r="17" fill="#16833a"/>
<text x="312" y="319" font-size="18" fill="#fff" font-weight="700" text-anchor="middle">2</text>
<line x1="405" y1="199" x2="415" y2="199" stroke="#6b7a90" stroke-width="2" stroke-linecap="round"/>
<path d="M 415 199 l -9 -5 l 0 10 z" fill="#6b7a90" transform="rotate(0 415 199)"/>
<rect x="420" y="104" width="180" height="190" rx="10" fill="#fff4e8" stroke="#cad7ea" stroke-width="1"/>
<text x="438" y="138" font-size="22" fill="#d96b00" font-weight="700" text-anchor="start">类型分类</text>
<text x="438" y="182" font-size="15" fill="#253247" font-weight="700" text-anchor="start">•</text>
<text x="454" y="182" font-size="15" fill="#253247" font-weight="400" text-anchor="start">PHOTO /</text>
<text x="454" y="206" font-size="15" fill="#253247" font-weight="400" text-anchor="start">SCREENSHOT</text>
<text x="438" y="230" font-size="15" fill="#253247" font-weight="700" text-anchor="start">•</text>
<text x="454" y="230" font-size="15" fill="#253247" font-weight="400" text-anchor="start">VIDEO / SCREEN_</text>
<text x="454" y="254" font-size="15" fill="#253247" font-weight="400" text-anchor="start">RECORDING</text>
<text x="438" y="278" font-size="15" fill="#253247" font-weight="700" text-anchor="start">•</text>
<text x="454" y="278" font-size="15" fill="#253247" font-weight="400" text-anchor="start">基于文件名规则</text>
<circle cx="510" cy="312" r="17" fill="#d96b00"/>
<text x="510" y="319" font-size="18" fill="#fff" font-weight="700" text-anchor="middle">3</text>
<line x1="603" y1="199" x2="613" y2="199" stroke="#6b7a90" stroke-width="2" stroke-linecap="round"/>
<path d="M 613 199 l -9 -5 l 0 10 z" fill="#6b7a90" transform="rotate(0 613 199)"/>
<rect x="618" y="104" width="180" height="190" rx="10" fill="#fff0f3" stroke="#cad7ea" stroke-width="1"/>
<text x="636" y="138" font-size="22" fill="#cc344d" font-weight="700" text-anchor="start">入库</text>
<text x="636" y="182" font-size="15" fill="#253247" font-weight="700" text-anchor="start">•</text>
<text x="652" y="182" font-size="15" fill="#253247" font-weight="400" text-anchor="start">media_asset</text>
<text x="636" y="206" font-size="15" fill="#253247" font-weight="700" text-anchor="start">•</text>
<text x="652" y="206" font-size="15" fill="#253247" font-weight="400" text-anchor="start">state = ACTIVE</text>
<text x="636" y="230" font-size="15" fill="#253247" font-weight="700" text-anchor="start">•</text>
<text x="652" y="230" font-size="15" fill="#253247" font-weight="400" text-anchor="start">fp_status</text>
<circle cx="708" cy="312" r="17" fill="#cc344d"/>
<text x="708" y="319" font-size="18" fill="#fff" font-weight="700" text-anchor="middle">4</text>
<line x1="801" y1="199" x2="811" y2="199" stroke="#6b7a90" stroke-width="2" stroke-linecap="round"/>
<path d="M 811 199 l -9 -5 l 0 10 z" fill="#6b7a90" transform="rotate(0 811 199)"/>
<rect x="816" y="104" width="180" height="190" rx="10" fill="#f5efff" stroke="#cad7ea" stroke-width="1"/>
<text x="834" y="138" font-size="22" fill="#6f35b8" font-weight="700" text-anchor="start">指纹计算</text>
<text x="834" y="182" font-size="15" fill="#253247" font-weight="700" text-anchor="start">•</text>
<text x="850" y="182" font-size="15" fill="#253247" font-weight="400" text-anchor="start">图片: dHash +</text>
<text x="850" y="206" font-size="15" fill="#253247" font-weight="400" text-anchor="start">colorHash</text>
<text x="834" y="230" font-size="15" fill="#253247" font-weight="700" text-anchor="start">•</text>
<text x="850" y="230" font-size="15" fill="#253247" font-weight="400" text-anchor="start">视频: 7~13 帧</text>
<text x="834" y="254" font-size="15" fill="#253247" font-weight="700" text-anchor="start">•</text>
<text x="850" y="254" font-size="15" fill="#253247" font-weight="400" text-anchor="start">每帧 hash</text>
<circle cx="906" cy="312" r="17" fill="#6f35b8"/>
<text x="906" y="319" font-size="18" fill="#fff" font-weight="700" text-anchor="middle">5</text>
<line x1="999" y1="199" x2="1009" y2="199" stroke="#6b7a90" stroke-width="2" stroke-linecap="round"/>
<path d="M 1009 199 l -9 -5 l 0 10 z" fill="#6b7a90" transform="rotate(0 1009 199)"/>
<rect x="1014" y="104" width="180" height="190" rx="10" fill="#eef5ff" stroke="#cad7ea" stroke-width="1"/>
<text x="1032" y="138" font-size="22" fill="#185abc" font-weight="700" text-anchor="start">重复识别</text>
<text x="1032" y="182" font-size="15" fill="#253247" font-weight="700" text-anchor="start">•</text>
<text x="1048" y="182" font-size="15" fill="#253247" font-weight="400" text-anchor="start">duplicateRefere</text>
<text x="1048" y="206" font-size="15" fill="#253247" font-weight="400" text-anchor="start">nce</text>
<text x="1032" y="230" font-size="15" fill="#253247" font-weight="700" text-anchor="start">•</text>
<text x="1048" y="230" font-size="15" fill="#253247" font-weight="400" text-anchor="start">类型/尺寸/hash/大小</text>
<text x="1032" y="254" font-size="15" fill="#253247" font-weight="700" text-anchor="start">•</text>
<text x="1048" y="254" font-size="15" fill="#253247" font-weight="400" text-anchor="start">SHA-256 诊断</text>
<circle cx="1104" cy="312" r="17" fill="#185abc"/>
<text x="1104" y="319" font-size="18" fill="#fff" font-weight="700" text-anchor="middle">6</text>
<line x1="1197" y1="199" x2="1207" y2="199" stroke="#6b7a90" stroke-width="2" stroke-linecap="round"/>
<path d="M 1207 199 l -9 -5 l 0 10 z" fill="#6b7a90" transform="rotate(0 1207 199)"/>
<rect x="1212" y="104" width="180" height="190" rx="10" fill="#eef5ff" stroke="#cad7ea" stroke-width="1"/>
<text x="1230" y="138" font-size="22" fill="#185abc" font-weight="700" text-anchor="start">相似识别</text>
<text x="1230" y="182" font-size="15" fill="#253247" font-weight="700" text-anchor="start">•</text>
<text x="1246" y="182" font-size="15" fill="#253247" font-weight="400" text-anchor="start">BK-Tree 召回</text>
<text x="1230" y="206" font-size="15" fill="#253247" font-weight="700" text-anchor="start">•</text>
<text x="1246" y="206" font-size="15" fill="#253247" font-weight="400" text-anchor="start">阈值精判</text>
<text x="1230" y="230" font-size="15" fill="#253247" font-weight="700" text-anchor="start">•</text>
<text x="1246" y="230" font-size="15" fill="#253247" font-weight="400" text-anchor="start">Video 2 帧命中</text>
<circle cx="1302" cy="312" r="17" fill="#185abc"/>
<text x="1302" y="319" font-size="18" fill="#fff" font-weight="700" text-anchor="middle">7</text>
<line x1="1395" y1="199" x2="1405" y2="199" stroke="#6b7a90" stroke-width="2" stroke-linecap="round"/>
<path d="M 1405 199 l -9 -5 l 0 10 z" fill="#6b7a90" transform="rotate(0 1405 199)"/>
<rect x="1410" y="104" width="180" height="190" rx="10" fill="#fff4e8" stroke="#cad7ea" stroke-width="1"/>
<text x="1428" y="138" font-size="22" fill="#d96b00" font-weight="700" text-anchor="start">分组重建</text>
<text x="1428" y="182" font-size="15" fill="#253247" font-weight="700" text-anchor="start">•</text>
<text x="1444" y="182" font-size="15" fill="#253247" font-weight="400" text-anchor="start">扫描结束重建</text>
<text x="1428" y="206" font-size="15" fill="#253247" font-weight="700" text-anchor="start">•</text>
<text x="1444" y="206" font-size="15" fill="#253247" font-weight="400" text-anchor="start">Anchor 直接相似</text>
<text x="1428" y="230" font-size="15" fill="#253247" font-weight="700" text-anchor="start">•</text>
<text x="1444" y="230" font-size="15" fill="#253247" font-weight="400" text-anchor="start">非连通分量</text>
<circle cx="1500" cy="312" r="17" fill="#d96b00"/>
<text x="1500" y="319" font-size="18" fill="#fff" font-weight="700" text-anchor="middle">8</text>
<line x1="1593" y1="199" x2="1603" y2="199" stroke="#6b7a90" stroke-width="2" stroke-linecap="round"/>
<path d="M 1603 199 l -9 -5 l 0 10 z" fill="#6b7a90" transform="rotate(0 1603 199)"/>
<rect x="1608" y="104" width="180" height="190" rx="10" fill="#eefaf1" stroke="#cad7ea" stroke-width="1"/>
<text x="1626" y="138" font-size="22" fill="#16833a" font-weight="700" text-anchor="start">结果展示</text>
<text x="1626" y="182" font-size="15" fill="#253247" font-weight="700" text-anchor="start">•</text>
<text x="1642" y="182" font-size="15" fill="#253247" font-weight="400" text-anchor="start">ProductCategory</text>
<text x="1626" y="206" font-size="15" fill="#253247" font-weight="700" text-anchor="start">•</text>
<text x="1642" y="206" font-size="15" fill="#253247" font-weight="400" text-anchor="start">后台读库</text>
<text x="1626" y="230" font-size="15" fill="#253247" font-weight="700" text-anchor="start">•</text>
<text x="1642" y="230" font-size="15" fill="#253247" font-weight="400" text-anchor="start">800ms 节流</text>
<circle cx="1698" cy="312" r="17" fill="#16833a"/>
<text x="1698" y="319" font-size="18" fill="#fff" font-weight="700" text-anchor="middle">9</text>
<rect x="24" y="350" width="380" height="350" rx="10" fill="#eef5ff" stroke="#cad7ea" stroke-width="1"/>
<circle cx="49" cy="380" r="17" fill="#185abc"/>
<text x="49" y="387" font-size="18" fill="#fff" font-weight="700" text-anchor="middle">2</text>
<text x="76" y="386" font-size="22" fill="#185abc" font-weight="700" text-anchor="start">2. 扫描模式</text>
<text x="49" y="422" font-size="16" fill="#253247" font-weight="700" text-anchor="start">•</text>
<text x="65" y="422" font-size="16" fill="#253247" font-weight="400" text-anchor="start">全量扫描：数据库为空、权限不完整、MediaStore</text>
<text x="65" y="446" font-size="16" fill="#253247" font-weight="400" text-anchor="start">version 变化、超过 24 小时或 forceFull。</text>
<text x="49" y="470" font-size="16" fill="#253247" font-weight="700" text-anchor="start">•</text>
<text x="65" y="470" font-size="16" fill="#253247" font-weight="400" text-anchor="start">增量扫描：API 30+ 基于</text>
<text x="65" y="494" font-size="16" fill="#253247" font-weight="400" text-anchor="start">generation_modified 续扫。</text>
<text x="49" y="518" font-size="16" fill="#253247" font-weight="700" text-anchor="start">•</text>
<text x="65" y="518" font-size="16" fill="#253247" font-weight="400" text-anchor="start">中断后 checkpoint 不推进，下次从旧游标继续。</text>
<text x="49" y="542" font-size="16" fill="#253247" font-weight="700" text-anchor="start">•</text>
<text x="65" y="542" font-size="16" fill="#253247" font-weight="400" text-anchor="start">完整授权的全量扫描结束后清理未出现资源。</text>
<rect x="424" y="350" width="520" height="350" rx="10" fill="#fff" stroke="#cad7ea" stroke-width="1"/>
<circle cx="449" cy="380" r="17" fill="#185abc"/>
<text x="449" y="387" font-size="18" fill="#fff" font-weight="700" text-anchor="middle">3</text>
<text x="476" y="386" font-size="22" fill="#185abc" font-weight="700" text-anchor="start">3. 资源读取流程（批次大小：500）</text>
<rect x="449" y="420" width="78" height="198" rx="8" fill="#f8fbff" stroke="#cad7ea" stroke-width="1"/>
<text x="488" y="446" font-size="14" fill="#185abc" font-weight="700" text-anchor="middle">Batch 1</text>
<rect x="459" y="462" width="58" height="22" rx="5" fill="#fff" stroke="#d8e4f4" stroke-width="1"/>
<text x="488" y="478" font-size="12" fill="#26364d" font-weight="500" text-anchor="middle">读取</text>
<rect x="459" y="492" width="58" height="22" rx="5" fill="#fff" stroke="#d8e4f4" stroke-width="1"/>
<text x="488" y="508" font-size="12" fill="#26364d" font-weight="500" text-anchor="middle">MediaAsset</text>
<rect x="459" y="522" width="58" height="22" rx="5" fill="#fff" stroke="#d8e4f4" stroke-width="1"/>
<text x="488" y="538" font-size="12" fill="#26364d" font-weight="500" text-anchor="middle">入库</text>
<rect x="459" y="552" width="58" height="22" rx="5" fill="#fff" stroke="#d8e4f4" stroke-width="1"/>
<text x="488" y="568" font-size="12" fill="#26364d" font-weight="500" text-anchor="middle">指纹</text>
<rect x="459" y="582" width="58" height="22" rx="5" fill="#fff" stroke="#d8e4f4" stroke-width="1"/>
<text x="488" y="598" font-size="12" fill="#26364d" font-weight="500" text-anchor="middle">识别</text>
<rect x="545" y="420" width="78" height="198" rx="8" fill="#f8fbff" stroke="#cad7ea" stroke-width="1"/>
<text x="584" y="446" font-size="14" fill="#185abc" font-weight="700" text-anchor="middle">Batch 2</text>
<rect x="555" y="462" width="58" height="22" rx="5" fill="#fff" stroke="#d8e4f4" stroke-width="1"/>
<text x="584" y="478" font-size="12" fill="#26364d" font-weight="500" text-anchor="middle">读取</text>
<rect x="555" y="492" width="58" height="22" rx="5" fill="#fff" stroke="#d8e4f4" stroke-width="1"/>
<text x="584" y="508" font-size="12" fill="#26364d" font-weight="500" text-anchor="middle">MediaAsset</text>
<rect x="555" y="522" width="58" height="22" rx="5" fill="#fff" stroke="#d8e4f4" stroke-width="1"/>
<text x="584" y="538" font-size="12" fill="#26364d" font-weight="500" text-anchor="middle">入库</text>
<rect x="555" y="552" width="58" height="22" rx="5" fill="#fff" stroke="#d8e4f4" stroke-width="1"/>
<text x="584" y="568" font-size="12" fill="#26364d" font-weight="500" text-anchor="middle">指纹</text>
<rect x="555" y="582" width="58" height="22" rx="5" fill="#fff" stroke="#d8e4f4" stroke-width="1"/>
<text x="584" y="598" font-size="12" fill="#26364d" font-weight="500" text-anchor="middle">识别</text>
<rect x="641" y="420" width="78" height="198" rx="8" fill="#f8fbff" stroke="#cad7ea" stroke-width="1"/>
<text x="680" y="446" font-size="14" fill="#185abc" font-weight="700" text-anchor="middle">Batch 3</text>
<rect x="651" y="462" width="58" height="22" rx="5" fill="#fff" stroke="#d8e4f4" stroke-width="1"/>
<text x="680" y="478" font-size="12" fill="#26364d" font-weight="500" text-anchor="middle">读取</text>
<rect x="651" y="492" width="58" height="22" rx="5" fill="#fff" stroke="#d8e4f4" stroke-width="1"/>
<text x="680" y="508" font-size="12" fill="#26364d" font-weight="500" text-anchor="middle">MediaAsset</text>
<rect x="651" y="522" width="58" height="22" rx="5" fill="#fff" stroke="#d8e4f4" stroke-width="1"/>
<text x="680" y="538" font-size="12" fill="#26364d" font-weight="500" text-anchor="middle">入库</text>
<rect x="651" y="552" width="58" height="22" rx="5" fill="#fff" stroke="#d8e4f4" stroke-width="1"/>
<text x="680" y="568" font-size="12" fill="#26364d" font-weight="500" text-anchor="middle">指纹</text>
<rect x="651" y="582" width="58" height="22" rx="5" fill="#fff" stroke="#d8e4f4" stroke-width="1"/>
<text x="680" y="598" font-size="12" fill="#26364d" font-weight="500" text-anchor="middle">识别</text>
<rect x="737" y="420" width="78" height="198" rx="8" fill="#f8fbff" stroke="#cad7ea" stroke-width="1"/>
<text x="776" y="446" font-size="14" fill="#185abc" font-weight="700" text-anchor="middle">Batch 4</text>
<rect x="747" y="462" width="58" height="22" rx="5" fill="#fff" stroke="#d8e4f4" stroke-width="1"/>
<text x="776" y="478" font-size="12" fill="#26364d" font-weight="500" text-anchor="middle">读取</text>
<rect x="747" y="492" width="58" height="22" rx="5" fill="#fff" stroke="#d8e4f4" stroke-width="1"/>
<text x="776" y="508" font-size="12" fill="#26364d" font-weight="500" text-anchor="middle">MediaAsset</text>
<rect x="747" y="522" width="58" height="22" rx="5" fill="#fff" stroke="#d8e4f4" stroke-width="1"/>
<text x="776" y="538" font-size="12" fill="#26364d" font-weight="500" text-anchor="middle">入库</text>
<rect x="747" y="552" width="58" height="22" rx="5" fill="#fff" stroke="#d8e4f4" stroke-width="1"/>
<text x="776" y="568" font-size="12" fill="#26364d" font-weight="500" text-anchor="middle">指纹</text>
<rect x="747" y="582" width="58" height="22" rx="5" fill="#fff" stroke="#d8e4f4" stroke-width="1"/>
<text x="776" y="598" font-size="12" fill="#26364d" font-weight="500" text-anchor="middle">识别</text>
<rect x="833" y="420" width="78" height="198" rx="8" fill="#f8fbff" stroke="#cad7ea" stroke-width="1"/>
<text x="872" y="446" font-size="14" fill="#185abc" font-weight="700" text-anchor="middle">Batch 5</text>
<rect x="843" y="462" width="58" height="22" rx="5" fill="#fff" stroke="#d8e4f4" stroke-width="1"/>
<text x="872" y="478" font-size="12" fill="#26364d" font-weight="500" text-anchor="middle">读取</text>
<rect x="843" y="492" width="58" height="22" rx="5" fill="#fff" stroke="#d8e4f4" stroke-width="1"/>
<text x="872" y="508" font-size="12" fill="#26364d" font-weight="500" text-anchor="middle">MediaAsset</text>
<rect x="843" y="522" width="58" height="22" rx="5" fill="#fff" stroke="#d8e4f4" stroke-width="1"/>
<text x="872" y="538" font-size="12" fill="#26364d" font-weight="500" text-anchor="middle">入库</text>
<rect x="843" y="552" width="58" height="22" rx="5" fill="#fff" stroke="#d8e4f4" stroke-width="1"/>
<text x="872" y="568" font-size="12" fill="#26364d" font-weight="500" text-anchor="middle">指纹</text>
<rect x="843" y="582" width="58" height="22" rx="5" fill="#fff" stroke="#d8e4f4" stroke-width="1"/>
<text x="872" y="598" font-size="12" fill="#26364d" font-weight="500" text-anchor="middle">识别</text>
<text x="454" y="648" font-size="15" fill="#526070" font-weight="400" text-anchor="start">500 只是读取批次，不是相似比较边界；扫描完成后统一重建</text>
<text x="454" y="668" font-size="15" fill="#526070" font-weight="400" text-anchor="start">SimilarGroup。</text>
<rect x="964" y="350" width="404" height="350" rx="10" fill="#fff" stroke="#cad7ea" stroke-width="1"/>
<circle cx="989" cy="380" r="17" fill="#185abc"/>
<text x="989" y="387" font-size="18" fill="#fff" font-weight="700" text-anchor="middle">4</text>
<text x="1016" y="386" font-size="22" fill="#185abc" font-weight="700" text-anchor="start">4. 媒体分类规则</text>
<text x="989" y="422" font-size="16" fill="#253247" font-weight="700" text-anchor="start">•</text>
<text x="1005" y="422" font-size="16" fill="#253247" font-weight="400" text-anchor="start">MediaStore.Images -&gt; PHOTO /</text>
<text x="1005" y="446" font-size="16" fill="#253247" font-weight="400" text-anchor="start">SCREENSHOT</text>
<text x="989" y="470" font-size="16" fill="#253247" font-weight="700" text-anchor="start">•</text>
<text x="1005" y="470" font-size="16" fill="#253247" font-weight="400" text-anchor="start">MediaStore.Video -&gt; VIDEO /</text>
<text x="1005" y="494" font-size="16" fill="#253247" font-weight="400" text-anchor="start">SCREEN_RECORDING</text>
<text x="989" y="518" font-size="16" fill="#253247" font-weight="700" text-anchor="start">•</text>
<text x="1005" y="518" font-size="16" fill="#253247" font-weight="400" text-anchor="start">截图和录屏依赖 DISPLAY_NAME 关键词二次分类。</text>
<text x="989" y="542" font-size="16" fill="#253247" font-weight="700" text-anchor="start">•</text>
<text x="1005" y="542" font-size="16" fill="#253247" font-weight="400" text-anchor="start">Chat Photos 是产品展示分类，不是底层</text>
<text x="1005" y="566" font-size="16" fill="#253247" font-weight="400" text-anchor="start">MediaKind。</text>
<rect x="1388" y="350" width="390" height="350" rx="10" fill="#eefaf1" stroke="#cad7ea" stroke-width="1"/>
<circle cx="1413" cy="380" r="17" fill="#16833a"/>
<text x="1413" y="387" font-size="18" fill="#fff" font-weight="700" text-anchor="middle">5</text>
<text x="1440" y="386" font-size="22" fill="#16833a" font-weight="700" text-anchor="start">5. 权限与启动链路</text>
<text x="1413" y="422" font-size="16" fill="#253247" font-weight="700" text-anchor="start">•</text>
<text x="1429" y="422" font-size="16" fill="#253247" font-weight="400" text-anchor="start">媒体权限通过后标记</text>
<text x="1429" y="446" font-size="16" fill="#253247" font-weight="400" text-anchor="start">pendingScanAfterPermission。</text>
<text x="1413" y="470" font-size="16" fill="#253247" font-weight="700" text-anchor="start">•</text>
<text x="1429" y="470" font-size="16" fill="#253247" font-weight="400" text-anchor="start">通知权限只请求一次；拒绝不阻止扫描。</text>
<text x="1413" y="494" font-size="16" fill="#253247" font-weight="700" text-anchor="start">•</text>
<text x="1429" y="494" font-size="16" fill="#253247" font-weight="400" text-anchor="start">startForegroundService 后 2s</text>
<text x="1429" y="518" font-size="16" fill="#253247" font-weight="400" text-anchor="start">grace 避免 UI 回到 Rescan。</text>
<text x="1413" y="542" font-size="16" fill="#253247" font-weight="700" text-anchor="start">•</text>
<text x="1429" y="542" font-size="16" fill="#253247" font-weight="400" text-anchor="start">扫描进度通过包内广播回首页。</text>
<rect x="24" y="740" width="340" height="390" rx="10" fill="#fff" stroke="#cad7ea" stroke-width="1"/>
<circle cx="49" cy="770" r="17" fill="#185abc"/>
<text x="49" y="777" font-size="18" fill="#fff" font-weight="700" text-anchor="middle">6</text>
<text x="76" y="776" font-size="22" fill="#185abc" font-weight="700" text-anchor="start">6. 图片指纹</text>
<text x="49" y="812" font-size="16" fill="#253247" font-weight="700" text-anchor="start">•</text>
<text x="65" y="812" font-size="16" fill="#253247" font-weight="400" text-anchor="start">Bitmap 来源：loadThumbnail</text>
<text x="65" y="836" font-size="16" fill="#253247" font-weight="400" text-anchor="start">1024，失败后 inputStream，再失败走</text>
<text x="65" y="860" font-size="16" fill="#253247" font-weight="400" text-anchor="start">DATA 文件路径。</text>
<text x="49" y="884" font-size="16" fill="#253247" font-weight="700" text-anchor="start">•</text>
<text x="65" y="884" font-size="16" fill="#253247" font-weight="400" text-anchor="start">dHash：9 x 8 双线性灰度采样，输出 64-bit</text>
<text x="65" y="908" font-size="16" fill="#253247" font-weight="400" text-anchor="start">Long。</text>
<text x="49" y="932" font-size="16" fill="#253247" font-weight="700" text-anchor="start">•</text>
<text x="65" y="932" font-size="16" fill="#253247" font-weight="400" text-anchor="start">colorHash：RGB 8 x 3 直方图，每 32</text>
<text x="65" y="956" font-size="16" fill="#253247" font-weight="400" text-anchor="start">灰阶一桶。</text>
<text x="49" y="980" font-size="16" fill="#253247" font-weight="700" text-anchor="start">•</text>
<text x="65" y="980" font-size="16" fill="#253247" font-weight="400" text-anchor="start">qualityScore：清晰度、曝光、分辨率、收藏、编辑</text>
<text x="65" y="1004" font-size="16" fill="#253247" font-weight="400" text-anchor="start">等综合评分。</text>
<rect x="384" y="740" width="360" height="390" rx="10" fill="#eef5ff" stroke="#cad7ea" stroke-width="1"/>
<circle cx="409" cy="770" r="17" fill="#185abc"/>
<text x="409" y="777" font-size="18" fill="#fff" font-weight="700" text-anchor="middle">7</text>
<text x="436" y="776" font-size="22" fill="#185abc" font-weight="700" text-anchor="start">7. 图片相似识别流程</text>
<rect x="474" y="810" width="180" height="26" rx="6" fill="#fff" stroke="#cbd9ef" stroke-width="1"/>
<text x="564" y="829" font-size="14" fill="#1c2e48" font-weight="600" text-anchor="middle">新图片</text>
<line x1="564" y1="838" x2="564" y2="847" stroke="#6b7a90" stroke-width="2" stroke-linecap="round"/>
<path d="M 564 847 l -9 -5 l 0 10 z" fill="#6b7a90" transform="rotate(0 564 847)"/>
<rect x="474" y="849" width="180" height="26" rx="6" fill="#fff" stroke="#cbd9ef" stroke-width="1"/>
<text x="564" y="868" font-size="14" fill="#1c2e48" font-weight="600" text-anchor="middle">加载指纹 Bitmap</text>
<line x1="564" y1="877" x2="564" y2="886" stroke="#6b7a90" stroke-width="2" stroke-linecap="round"/>
<path d="M 564 886 l -9 -5 l 0 10 z" fill="#6b7a90" transform="rotate(0 564 886)"/>
<rect x="474" y="888" width="180" height="26" rx="6" fill="#fff" stroke="#cbd9ef" stroke-width="1"/>
<text x="564" y="907" font-size="14" fill="#1c2e48" font-weight="600" text-anchor="middle">dHash + colorHash</text>
<line x1="564" y1="916" x2="564" y2="925" stroke="#6b7a90" stroke-width="2" stroke-linecap="round"/>
<path d="M 564 925 l -9 -5 l 0 10 z" fill="#6b7a90" transform="rotate(0 564 925)"/>
<rect x="474" y="927" width="180" height="26" rx="6" fill="#fff" stroke="#cbd9ef" stroke-width="1"/>
<text x="564" y="946" font-size="14" fill="#1c2e48" font-weight="600" text-anchor="middle">BK-Tree 候选召回</text>
<line x1="564" y1="955" x2="564" y2="964" stroke="#6b7a90" stroke-width="2" stroke-linecap="round"/>
<path d="M 564 964 l -9 -5 l 0 10 z" fill="#6b7a90" transform="rotate(0 564 964)"/>
<rect x="474" y="966" width="180" height="26" rx="6" fill="#fff" stroke="#cbd9ef" stroke-width="1"/>
<text x="564" y="985" font-size="14" fill="#1c2e48" font-weight="600" text-anchor="middle">阈值精判</text>
<line x1="564" y1="994" x2="564" y2="1003" stroke="#6b7a90" stroke-width="2" stroke-linecap="round"/>
<path d="M 564 1003 l -9 -5 l 0 10 z" fill="#6b7a90" transform="rotate(0 564 1003)"/>
<rect x="474" y="1005" width="180" height="26" rx="6" fill="#fff" stroke="#cbd9ef" stroke-width="1"/>
<text x="564" y="1024" font-size="14" fill="#1c2e48" font-weight="600" text-anchor="middle">写入 SimilarGroup</text>
<rect x="764" y="740" width="400" height="390" rx="10" fill="#fff" stroke="#cad7ea" stroke-width="1"/>
<circle cx="789" cy="770" r="17" fill="#185abc"/>
<text x="789" y="777" font-size="18" fill="#fff" font-weight="700" text-anchor="middle">8</text>
<text x="816" y="776" font-size="22" fill="#185abc" font-weight="700" text-anchor="start">8. 相似阈值</text>
<rect x="789" y="810" width="350" height="34" rx="8" fill="#eaf2ff" stroke="#cad7ea" stroke-width="1"/>
<text x="799" y="833" font-size="15" fill="#185abc" font-weight="700" text-anchor="start">类型</text>
<text x="891" y="833" font-size="15" fill="#185abc" font-weight="700" text-anchor="start">直接</text>
<text x="949" y="833" font-size="15" fill="#185abc" font-weight="700" text-anchor="start">max</text>
<text x="1007" y="833" font-size="15" fill="#185abc" font-weight="700" text-anchor="start">color</text>
<rect x="789" y="844" width="350" height="34" rx="0" fill="#fff" stroke="#cad7ea" stroke-width="1"/>
<text x="799" y="867" font-size="15" fill="#253247" font-weight="400" text-anchor="start">PHOTO</text>
<text x="891" y="867" font-size="15" fill="#253247" font-weight="400" text-anchor="start">0-4</text>
<text x="949" y="867" font-size="15" fill="#253247" font-weight="400" text-anchor="start">&lt;18</text>
<text x="1007" y="867" font-size="15" fill="#253247" font-weight="400" text-anchor="start">4-10&lt;=7</text>
<rect x="789" y="878" width="350" height="34" rx="0" fill="#fff" stroke="#cad7ea" stroke-width="1"/>
<text x="799" y="901" font-size="15" fill="#253247" font-weight="400" text-anchor="start">SHOT</text>
<text x="891" y="901" font-size="15" fill="#253247" font-weight="400" text-anchor="start">0-2</text>
<text x="949" y="901" font-size="15" fill="#253247" font-weight="400" text-anchor="start">&lt;16</text>
<text x="1007" y="901" font-size="15" fill="#253247" font-weight="400" text-anchor="start">2-10&lt;=5</text>
<rect x="789" y="912" width="350" height="34" rx="0" fill="#fff" stroke="#cad7ea" stroke-width="1"/>
<text x="799" y="935" font-size="15" fill="#253247" font-weight="400" text-anchor="start">VIDEO</text>
<text x="891" y="935" font-size="15" fill="#253247" font-weight="400" text-anchor="start">0-2</text>
<text x="949" y="935" font-size="15" fill="#253247" font-weight="400" text-anchor="start">&lt;16</text>
<text x="1007" y="935" font-size="15" fill="#253247" font-weight="400" text-anchor="start">2-10&lt;=5</text>
<rect x="789" y="946" width="350" height="34" rx="0" fill="#fff" stroke="#cad7ea" stroke-width="1"/>
<text x="799" y="969" font-size="15" fill="#253247" font-weight="400" text-anchor="start">REC</text>
<text x="891" y="969" font-size="15" fill="#253247" font-weight="400" text-anchor="start">0-2</text>
<text x="949" y="969" font-size="15" fill="#253247" font-weight="400" text-anchor="start">&lt;16</text>
<text x="1007" y="969" font-size="15" fill="#253247" font-weight="400" text-anchor="start">2-10&lt;=5</text>
<text x="789" y="990" font-size="16" fill="#526070" font-weight="400" text-anchor="start">直接区间命中即相似；中间距离继续用 colorHash</text>
<text x="789" y="1013" font-size="16" fill="#526070" font-weight="400" text-anchor="start">过滤。高距离直接不相似。</text>
<rect x="1184" y="740" width="594" height="390" rx="10" fill="#eefaf1" stroke="#cad7ea" stroke-width="1"/>
<circle cx="1209" cy="770" r="17" fill="#16833a"/>
<text x="1209" y="777" font-size="18" fill="#fff" font-weight="700" text-anchor="middle">9</text>
<text x="1236" y="776" font-size="22" fill="#16833a" font-weight="700" text-anchor="start">9. 重复 / 相同图片识别</text>
<text x="1209" y="812" font-size="16" fill="#253247" font-weight="700" text-anchor="start">•</text>
<text x="1225" y="812" font-size="16" fill="#253247" font-weight="400" text-anchor="start">Duplicate 候选条件：类型、宽度、高度、isEdited、size、imageHash</text>
<text x="1225" y="836" font-size="16" fill="#253247" font-weight="400" text-anchor="start">全部相同。</text>
<text x="1209" y="860" font-size="16" fill="#253247" font-weight="700" text-anchor="start">•</text>
<text x="1225" y="860" font-size="16" fill="#253247" font-weight="400" text-anchor="start">SHA-256 按需计算并缓存，只作为字节级验证证据。</text>
<text x="1209" y="884" font-size="16" fill="#253247" font-weight="700" text-anchor="start">•</text>
<text x="1225" y="884" font-size="16" fill="#253247" font-weight="400" text-anchor="start">Duplicate 优先级高于 Similar，同一资源不重复累计。</text>
<text x="1209" y="908" font-size="16" fill="#253247" font-weight="700" text-anchor="start">•</text>
<text x="1225" y="908" font-size="16" fill="#253247" font-weight="400" text-anchor="start">用户删除期间 revision 变化，旧扫描令牌提交失败。</text>
<rect x="24" y="1170" width="570" height="410" rx="10" fill="#fff" stroke="#cad7ea" stroke-width="1"/>
<circle cx="49" cy="1200" r="17" fill="#185abc"/>
<text x="49" y="1207" font-size="18" fill="#fff" font-weight="700" text-anchor="middle">10</text>
<text x="76" y="1206" font-size="22" fill="#185abc" font-weight="700" text-anchor="start">10. 视频指纹</text>
<text x="49" y="1242" font-size="16" fill="#253247" font-weight="700" text-anchor="start">•</text>
<text x="65" y="1242" font-size="16" fill="#253247" font-weight="400" text-anchor="start">只接受 MediaStore DATA 真实路径；失败返回无效指纹，不回退 content</text>
<text x="65" y="1266" font-size="16" fill="#253247" font-weight="400" text-anchor="start">Uri。</text>
<text x="49" y="1290" font-size="16" fill="#253247" font-weight="700" text-anchor="start">•</text>
<text x="65" y="1290" font-size="16" fill="#253247" font-weight="400" text-anchor="start">抽帧规则：MIN_INTERVAL=2，MAX_INTERVAL=10，NORMAL_FRAME_</text>
<text x="65" y="1314" font-size="16" fill="#253247" font-weight="400" text-anchor="start">COUNT=7，MAX_FRAME_COUNT=13。</text>
<text x="49" y="1338" font-size="16" fill="#253247" font-weight="700" text-anchor="start">•</text>
<text x="65" y="1338" font-size="16" fill="#253247" font-weight="400" text-anchor="start">API 30+：getScaledFrameAtTime + ARGB_8888 + 9x8。</text>
<text x="49" y="1362" font-size="16" fill="#253247" font-weight="700" text-anchor="start">•</text>
<text x="65" y="1362" font-size="16" fill="#253247" font-weight="400" text-anchor="start">API 27-29：getScaledFrameAtTime + 9x8。</text>
<text x="49" y="1386" font-size="16" fill="#253247" font-weight="700" text-anchor="start">•</text>
<text x="65" y="1386" font-size="16" fill="#253247" font-weight="400" text-anchor="start">API 23-26：getFrameAtTime 后缩放到 9x8。</text>
<rect x="614" y="1170" width="570" height="410" rx="10" fill="#eef5ff" stroke="#cad7ea" stroke-width="1"/>
<circle cx="639" cy="1200" r="17" fill="#185abc"/>
<text x="639" y="1207" font-size="18" fill="#fff" font-weight="700" text-anchor="middle">11</text>
<text x="666" y="1206" font-size="22" fill="#185abc" font-weight="700" text-anchor="start">11. 视频相似识别方案</text>
<text x="639" y="1242" font-size="16" fill="#253247" font-weight="700" text-anchor="start">•</text>
<text x="655" y="1242" font-size="16" fill="#253247" font-weight="400" text-anchor="start">候选限定同类型：VIDEO 或 SCREEN_RECORDING。</text>
<text x="639" y="1266" font-size="16" fill="#253247" font-weight="700" text-anchor="start">•</text>
<text x="655" y="1266" font-size="16" fill="#253247" font-weight="400" text-anchor="start">left.frames 遍历，right.frames 中找到一个相似帧后</text>
<text x="655" y="1290" font-size="16" fill="#253247" font-weight="400" text-anchor="start">matchedCount + 1。</text>
<text x="639" y="1314" font-size="16" fill="#253247" font-weight="700" text-anchor="start">•</text>
<text x="655" y="1314" font-size="16" fill="#253247" font-weight="400" text-anchor="start">matchedCount &gt;= 2 判定相似。</text>
<text x="639" y="1338" font-size="16" fill="#253247" font-weight="700" text-anchor="start">•</text>
<text x="655" y="1338" font-size="16" fill="#253247" font-weight="400" text-anchor="start">当前可优化点：低信息帧过滤、内部重复帧去重、时间位置约束。</text>
<rect x="1204" y="1170" width="574" height="410" rx="10" fill="#fff" stroke="#cad7ea" stroke-width="1"/>
<circle cx="1229" cy="1200" r="17" fill="#d96b00"/>
<text x="1229" y="1207" font-size="18" fill="#fff" font-weight="700" text-anchor="middle">12</text>
<text x="1256" y="1206" font-size="22" fill="#d96b00" font-weight="700" text-anchor="start">12. 分组生成规则</text>
<text x="1229" y="1242" font-size="16" fill="#253247" font-weight="700" text-anchor="start">•</text>
<text x="1245" y="1242" font-size="16" fill="#253247" font-weight="400" text-anchor="start">扫描中实时写组，便于 UI 及时展示。</text>
<text x="1229" y="1266" font-size="16" fill="#253247" font-weight="700" text-anchor="start">•</text>
<text x="1245" y="1266" font-size="16" fill="#253247" font-weight="400" text-anchor="start">扫描完成后按类型重建 SimilarGroup。</text>
<text x="1229" y="1290" font-size="16" fill="#253247" font-weight="700" text-anchor="start">•</text>
<text x="1245" y="1290" font-size="16" fill="#253247" font-weight="400" text-anchor="start">图片/截图锚点顺序：created_at ASC, media_store_id DESC。</text>
<text x="1229" y="1314" font-size="16" fill="#253247" font-weight="700" text-anchor="start">•</text>
<text x="1245" y="1314" font-size="16" fill="#253247" font-weight="400" text-anchor="start">视频/录屏锚点顺序：date_added DESC。</text>
<text x="1229" y="1338" font-size="16" fill="#253247" font-weight="700" text-anchor="start">•</text>
<text x="1245" y="1338" font-size="16" fill="#253247" font-weight="400" text-anchor="start">只合并与锚点直接相似的资源，不做连通分量合并。</text>
<rect x="24" y="1620" width="430" height="370" rx="10" fill="#fff" stroke="#cad7ea" stroke-width="1"/>
<circle cx="49" cy="1650" r="17" fill="#185abc"/>
<text x="49" y="1657" font-size="18" fill="#fff" font-weight="700" text-anchor="middle">13</text>
<text x="76" y="1656" font-size="22" fill="#185abc" font-weight="700" text-anchor="start">13. 资源状态</text>
<rect x="49" y="1692" width="395" height="36" rx="8" fill="#eaf2ff" stroke="#cad7ea" stroke-width="1"/>
<text x="59" y="1715" font-size="15" fill="#185abc" font-weight="700" text-anchor="start">状态</text>
<text x="179" y="1715" font-size="15" fill="#185abc" font-weight="700" text-anchor="start">含义</text>
<text x="334" y="1715" font-size="15" fill="#185abc" font-weight="700" text-anchor="start">处理</text>
<rect x="49" y="1728" width="395" height="36" rx="0" fill="#fff" stroke="#cad7ea" stroke-width="1"/>
<text x="59" y="1751" font-size="15" fill="#253247" font-weight="400" text-anchor="start">ACTIVE</text>
<text x="179" y="1751" font-size="15" fill="#253247" font-weight="400" text-anchor="start">可展示/扫描</text>
<text x="334" y="1751" font-size="15" fill="#253247" font-weight="400" text-anchor="start">参与候选</text>
<rect x="49" y="1764" width="395" height="36" rx="0" fill="#fff" stroke="#cad7ea" stroke-width="1"/>
<text x="59" y="1787" font-size="15" fill="#253247" font-weight="400" text-anchor="start">DELETE_PENDING</text>
<text x="179" y="1787" font-size="15" fill="#253247" font-weight="400" text-anchor="start">等待系统确认</text>
<text x="334" y="1787" font-size="15" fill="#253247" font-weight="400" text-anchor="start">不参与扫描</text>
<rect x="49" y="1800" width="395" height="36" rx="0" fill="#fff" stroke="#cad7ea" stroke-width="1"/>
<text x="59" y="1823" font-size="15" fill="#253247" font-weight="400" text-anchor="start">DELETED</text>
<text x="179" y="1823" font-size="15" fill="#253247" font-weight="400" text-anchor="start">已删除</text>
<text x="334" y="1823" font-size="15" fill="#253247" font-weight="400" text-anchor="start">移除记录</text>
<rect x="49" y="1836" width="395" height="36" rx="0" fill="#fff" stroke="#cad7ea" stroke-width="1"/>
<text x="59" y="1859" font-size="15" fill="#253247" font-weight="400" text-anchor="start">FAILED</text>
<text x="179" y="1859" font-size="15" fill="#253247" font-weight="400" text-anchor="start">指纹失败</text>
<text x="334" y="1859" font-size="15" fill="#253247" font-weight="400" text-anchor="start">保留元数据</text>
<rect x="474" y="1620" width="430" height="370" rx="10" fill="#fff4e8" stroke="#cad7ea" stroke-width="1"/>
<circle cx="499" cy="1650" r="17" fill="#d96b00"/>
<text x="499" y="1657" font-size="18" fill="#fff" font-weight="700" text-anchor="middle">14</text>
<text x="526" y="1656" font-size="22" fill="#d96b00" font-weight="700" text-anchor="start">14. 删除安全机制</text>
<text x="499" y="1692" font-size="16" fill="#253247" font-weight="700" text-anchor="start">•</text>
<text x="515" y="1692" font-size="16" fill="#253247" font-weight="400" text-anchor="start">markDeletePending：state=DELETE_PENDI</text>
<text x="515" y="1716" font-size="16" fill="#253247" font-weight="400" text-anchor="start">NG，revision+1。</text>
<text x="499" y="1740" font-size="16" fill="#253247" font-weight="700" text-anchor="start">•</text>
<text x="515" y="1740" font-size="16" fill="#253247" font-weight="400" text-anchor="start">提交时校验 token revision。</text>
<text x="499" y="1764" font-size="16" fill="#253247" font-weight="700" text-anchor="start">•</text>
<text x="515" y="1764" font-size="16" fill="#253247" font-weight="400" text-anchor="start">删除确认后 finalizeDelete。</text>
<text x="499" y="1788" font-size="16" fill="#253247" font-weight="700" text-anchor="start">•</text>
<text x="515" y="1788" font-size="16" fill="#253247" font-weight="400" text-anchor="start">取消或恢复时 restore/recover 到 ACTIVE。</text>
<rect x="924" y="1620" width="430" height="370" rx="10" fill="#eefaf1" stroke="#cad7ea" stroke-width="1"/>
<circle cx="949" cy="1650" r="17" fill="#16833a"/>
<text x="949" y="1657" font-size="18" fill="#fff" font-weight="700" text-anchor="middle">15</text>
<text x="976" y="1656" font-size="22" fill="#16833a" font-weight="700" text-anchor="start">15. 首页展示与性能</text>
<text x="949" y="1692" font-size="16" fill="#253247" font-weight="700" text-anchor="start">•</text>
<text x="965" y="1692" font-size="16" fill="#253247" font-weight="400" text-anchor="start">扫描进度广播只更新文字。</text>
<text x="949" y="1716" font-size="16" fill="#253247" font-weight="700" text-anchor="start">•</text>
<text x="965" y="1716" font-size="16" fill="#253247" font-weight="400" text-anchor="start">结果刷新 800ms 节流。</text>
<text x="949" y="1740" font-size="16" fill="#253247" font-weight="700" text-anchor="start">•</text>
<text x="965" y="1740" font-size="16" fill="#253247" font-weight="400" text-anchor="start">后台线程 loadGroups + build</text>
<text x="965" y="1764" font-size="16" fill="#253247" font-weight="400" text-anchor="start">ProductCategory。</text>
<text x="949" y="1788" font-size="16" fill="#253247" font-weight="700" text-anchor="start">•</text>
<text x="965" y="1788" font-size="16" fill="#253247" font-weight="400" text-anchor="start">adapter submitList 原地更新。</text>
<text x="949" y="1812" font-size="16" fill="#253247" font-weight="700" text-anchor="start">•</text>
<text x="965" y="1812" font-size="16" fill="#253247" font-weight="400" text-anchor="start">Other 分类只加载 120 个预览，真实数量/大小 SQL 聚合。</text>
<rect x="1374" y="1620" width="404" height="370" rx="10" fill="#fff0f3" stroke="#cad7ea" stroke-width="1"/>
<circle cx="1399" cy="1650" r="17" fill="#cc344d"/>
<text x="1399" y="1657" font-size="18" fill="#fff" font-weight="700" text-anchor="middle">16</text>
<text x="1426" y="1656" font-size="22" fill="#cc344d" font-weight="700" text-anchor="start">16. 当前边界</text>
<text x="1399" y="1692" font-size="16" fill="#253247" font-weight="700" text-anchor="start">•</text>
<text x="1415" y="1692" font-size="16" fill="#253247" font-weight="400" text-anchor="start">外部相册删除在增量扫描中可能延迟同步。</text>
<text x="1399" y="1716" font-size="16" fill="#253247" font-weight="700" text-anchor="start">•</text>
<text x="1415" y="1716" font-size="16" fill="#253247" font-weight="400" text-anchor="start">视频相似受静态 UI、片头、低信息帧影响。</text>
<text x="1399" y="1740" font-size="16" fill="#253247" font-weight="700" text-anchor="start">•</text>
<text x="1415" y="1740" font-size="16" fill="#253247" font-weight="400" text-anchor="start">DATA 路径不可读会得到无效视频指纹。</text>
<text x="1399" y="1764" font-size="16" fill="#253247" font-weight="700" text-anchor="start">•</text>
<text x="1415" y="1764" font-size="16" fill="#253247" font-weight="400" text-anchor="start">Other 详情超大集合后续建议分页。</text>
<rect x="24" y="2030" width="1752" height="820" rx="10" fill="#fff" stroke="#cad7ea" stroke-width="1"/>
<circle cx="49" cy="2060" r="17" fill="#185abc"/>
<text x="49" y="2067" font-size="18" fill="#fff" font-weight="700" text-anchor="middle">17</text>
<text x="76" y="2066" font-size="22" fill="#185abc" font-weight="700" text-anchor="start">17. 技术方案总结与审核点</text>
<text x="59" y="2112" font-size="22" fill="#185abc" font-weight="800" text-anchor="start">当前方案定位</text>
<text x="59" y="2152" font-size="17" fill="#253247" font-weight="700" text-anchor="start">•</text>
<text x="75" y="2152" font-size="17" fill="#253247" font-weight="400" text-anchor="start">工程层采用产品级异步落库方案：前台服务扫描、SQLite 持久化、候选召回、UI 实时刷新。</text>
<text x="59" y="2176" font-size="17" fill="#253247" font-weight="700" text-anchor="start">•</text>
<text x="75" y="2176" font-size="17" fill="#253247" font-weight="400" text-anchor="start">算法层使用 dHash + colorHash + 分媒体类型阈值，视频使用多帧指纹和至少 2 帧命中。</text>
<text x="59" y="2200" font-size="17" fill="#253247" font-weight="700" text-anchor="start">•</text>
<text x="75" y="2200" font-size="17" fill="#253247" font-weight="400" text-anchor="start">展示层区分分析帧与 UI 封面，首页刷新节流并异步加载缩略图。</text>
<text x="59" y="2285" font-size="22" fill="#cc344d" font-weight="800" text-anchor="start">需要审核确认</text>
<text x="59" y="2325" font-size="17" fill="#253247" font-weight="700" text-anchor="start">•</text>
<text x="75" y="2325" font-size="17" fill="#253247" font-weight="400" text-anchor="start">视频相似是否继续保持当前严格阈值，还是引入低信息帧过滤与时间位置约束。</text>
<text x="59" y="2349" font-size="17" fill="#253247" font-weight="700" text-anchor="start">•</text>
<text x="75" y="2349" font-size="17" fill="#253247" font-weight="400" text-anchor="start">外部系统相册删除是否需要每次扫描前做轻量 MediaStore 对账。</text>
<text x="59" y="2373" font-size="17" fill="#253247" font-weight="700" text-anchor="start">•</text>
<text x="75" y="2373" font-size="17" fill="#253247" font-weight="400" text-anchor="start">Other 分类详情页是否需要分页加载。</text>
<text x="59" y="2397" font-size="17" fill="#253247" font-weight="700" text-anchor="start">•</text>
<text x="75" y="2397" font-size="17" fill="#253247" font-weight="400" text-anchor="start">是否将最终图作为 PNG 交付；当前 skill 会优先用浏览器按完整画布渲染 PNG。</text>
<text x="59" y="2530" font-size="22" fill="#16833a" font-weight="800" text-anchor="start">生成物</text>
<text x="59" y="2570" font-size="17" fill="#526070" font-weight="400" text-anchor="start">审核稿：docs/generated/media-scan-analyzer/review/media_scan_infographic_review.svg/png；最终稿：docs/generated/media-scan-analyzer/fi</text>
<text x="59" y="2596" font-size="17" fill="#526070" font-weight="400" text-anchor="start">nal/media_scan_infographic_final.svg/png</text>
</svg>
